<svg width="725" height="201" viewBox="0 0 725 201" fill="none" xmlns="http://www.w3.org/2000/svg">
<path d="M180.472 62.978C160.944 62.978 144.996 69.3246 132.791 82.1806C120.586 94.8739 114.564 111.31 114.564 131.326C114.564 152.156 121.074 168.755 134.255 181.286C147.437 193.816 164.524 200.163 185.354 200.163C207.486 200.163 226.2 194.792 241.66 183.727V157.852C233.523 163.71 225.549 168.104 217.9 170.871C210.252 173.8 202.278 175.264 193.979 175.264C181.123 175.264 170.87 172.172 163.547 165.663C156.062 159.317 151.668 150.203 150.366 138.487H243.775V133.279C243.775 111.31 238.079 94.0602 226.851 81.6924C215.297 69.1619 199.837 62.978 180.472 62.978ZM150.529 117.331C151.993 107.242 155.411 99.5932 160.618 94.3857C165.988 89.1782 172.986 86.5744 181.774 86.5744C190.398 86.5744 197.071 89.3409 201.953 94.7111C206.835 100.081 209.764 107.567 210.74 117.331H150.529Z" fill="#151A21"/>
<path d="M57.7705 171.522L126.444 65.419H5.20749V91.7819H68.8364L0 197.559H131.652C122.376 192.514 113.1 181.774 109.52 171.522H57.7705Z" fill="#151A21"/>
<path d="M367.128 65.419H332.14L300.895 141.741L270.138 65.419H234.011L293.409 200H307.73L343.368 119.447L367.128 65.419Z" fill="#151A21"/>
<path d="M486.249 62.978C475.508 62.978 465.907 64.9308 457.282 68.6737C450.285 71.7657 443.938 76.3222 438.405 82.0179C426.2 94.7111 420.016 111.147 420.016 131.164C420.016 141.416 421.643 150.692 424.898 158.991C428.316 167.453 433.198 174.939 439.87 181.286C453.051 193.816 470.138 200.163 490.805 200.163C512.937 200.163 531.652 194.792 547.111 183.727V157.852C538.812 163.71 531.001 168.104 523.352 170.871C515.704 173.8 507.73 175.264 499.43 175.264C486.574 175.264 476.322 172.172 468.836 165.663C461.513 159.317 456.957 150.203 455.655 138.487H549.064V133.279C549.064 111.31 543.368 94.0602 532.14 81.6924C520.911 69.1619 505.614 62.978 486.249 62.978ZM456.306 117.331C457.77 107.242 461.025 99.5932 466.395 94.3857C471.765 89.1782 478.763 86.5744 487.551 86.5744C496.013 86.5744 502.848 89.3409 507.73 94.7111C512.612 100.081 515.541 107.567 516.517 117.331H456.306Z" fill="#151A21"/>
<path d="M684.134 95.5248C678.926 85.1098 671.603 77.1359 662.164 71.4402C652.726 65.7445 642.148 62.978 630.594 62.978C617.575 62.978 606.021 66.5582 595.606 74.0439V0H560.781V188.934C579.821 196.42 599.512 200 619.528 200C637.429 200 652.4 196.094 664.28 188.12C663.466 185.028 662.978 181.774 662.978 178.356C662.978 167.29 667.209 157.364 675.183 149.715C679.902 144.996 685.598 141.741 691.457 139.788C691.782 136.697 691.945 133.442 691.945 130.024C692.108 117.331 689.504 105.777 684.134 95.5248ZM647.03 162.083C640.684 169.894 632.221 173.8 621.644 173.8C611.88 173.8 603.092 172.498 595.606 169.894V99.9186C600.326 96.1758 604.557 93.4093 608.625 91.6192C612.693 89.8291 617.087 89.0155 621.969 89.0155C632.384 89.0155 640.684 92.5956 647.03 100.081C653.377 107.404 656.469 117.331 656.469 129.862C656.469 143.531 653.377 154.434 647.03 162.083Z" fill="#151A21"/>
<path d="M395.281 65.419L364.687 141.741L355.573 119.609L338.975 157.201L358.014 200H372.661L431.57 65.419H395.281Z" fill="#151A21"/>
<path d="M725.305 178.356C725.305 184.215 723.19 189.26 718.958 193.653C714.727 197.884 709.683 200.163 703.499 200.163C697.478 200.163 692.433 198.047 688.202 193.653C683.971 189.26 681.692 184.378 681.692 178.356C681.692 172.335 683.808 167.29 688.202 162.897C692.596 158.666 697.64 156.55 703.499 156.55C709.194 156.55 714.402 158.666 718.796 162.897C723.027 167.29 725.305 172.498 725.305 178.356Z" fill="#151A21"/>
</svg>
